<?xml version="1.0" standalone="no"?><svg xmlns:xlink="http://www.w3.org/1999/xlink" xmlns="http://www.w3.org/2000/svg" viewBox="0 0 1000 666.6666666666667" preserveAspectRatio="xMaxYMax slice"><g transform="scale(1.3253810470510272)"><rect x="0" y="0" width="754.5" height="503" fill="#ffffff"/><rect x="0" y="0" width="83.83333333333333" height="83.83333333333333" fill="#ffffff"/><rect x="0" y="0" width="41.92" height="41.92" fill="#f9c369"/><polygon points="41.92,0 41.92,41.92 0,41.92" fill="#fde8c6"/><rect x="41.92" y="0" width="41.92" height="41.92" fill="#6099f8"/><polygon points="41.92,0 83.84,0 41.92,41.92" fill="#5d98f8"/><rect x="0" y="41.92" width="41.92" height="41.92" fill="#abc9fb"/><polygon points="0,41.92 41.92,41.92 41.92,83.84" fill="#a9c8fb"/><rect x="41.92" y="41.92" width="41.92" height="41.92" fill="#91b9fa"/><polygon points="41.92,41.92 83.84,83.84 41.92,83.84" fill="#f59e0c"/><rect x="83.83" y="0" width="83.83" height="83.83" fill="#f8be5b"/><polygon points="83.83,0 167.66,83.83 83.83,83.83" fill="#f8bf5d"/><rect x="167.67" y="0" width="83.83" height="83.83" fill="#f6a823"/><rect x="167.67" y="0" width="83.83" height="83.83" fill="#5592f7"/><rect x="251.5" y="0" width="83.83" height="83.83" fill="#f7b340"/><path d="M 251.5 0 A 83.83 83.83 0 0 0 335.33 83.83 L 335.33 0" fill="#99befa"/><rect x="335.3333333333333" y="0" width="83.83333333333333" height="83.83333333333333" fill="#ffffff"/><rect x="335.33" y="0" width="41.92" height="41.92" fill="#fef7ec"/><path d="M 335.33 41.92 A 41.92 41.92 0 0 1  377.25 0 L 377.25 41.92" fill="#f4f8fe"/><rect x="377.25" y="0" width="41.92" height="41.92" fill="#a5c5fb"/><path d="M 377.25 0 A 41.92 41.92 0 0 1 419.17 41.92 L 377.25 41.92" fill="#b0cdfb"/><rect x="335.33" y="41.92" width="41.92" height="41.92" fill="#fad390"/><path d="M 335.33 41.92 A 41.92 41.92 0 0 0 377.25 83.84 L 377.25 41.92" fill="#5693f7"/><rect x="377.25" y="41.92" width="41.92" height="41.92" fill="#b6d0fc"/><path d="M 377.25 83.84 A 41.92 41.92 0 0 0 419.17 41.92 L 377.25 41.92" fill="#e3edfe"/><rect x="419.16666666666663" y="0" width="83.83333333333333" height="83.83333333333333" fill="#ffffff"/><rect x="419.17" y="0" width="41.92" height="41.92" fill="#f9c265"/><path d="M 419.17 0 A 41.92 41.92 0 0 0 461.09000000000003 41.92 L 461.09000000000003 0" fill="#fad28d"/><rect x="461.08" y="0" width="41.92" height="41.92" fill="#8eb7fa"/><path d="M 461.08 41.92 A 41.92 41.92 0 0 0 503 0 L 461.08 0" fill="#f7b340"/><rect x="419.17" y="41.92" width="41.92" height="41.92" fill="#f6a722"/><path d="M 419.17 83.84 A 41.92 41.92 0 0 1  461.09000000000003 41.92 L 461.09000000000003 83.84" fill="#7aaaf9"/><rect x="461.08" y="41.92" width="41.92" height="41.92" fill="#f9c670"/><path d="M 461.08 41.92 A 41.92 41.92 0 0 1 503 83.84 L 461.08 83.84" fill="#639cf8"/><rect x="503" y="0" width="83.83" height="83.83" fill="#facc80"/><path d="M 503 83.83 A 83.83 83.83 0 0 1  586.83 0 L 503 83.83 A 83.83 83.83 0 0 0 586.83 0" fill="#f8bb54"/><rect x="586.83" y="0" width="83.83" height="83.83" fill="#facb7c"/><polygon points="586.83,0 670.6600000000001,0 670.6600000000001,83.83" fill="#fce3b9"/><rect x="670.67" y="0" width="83.83" height="83.83" fill="#fad391"/><rect x="670.67" y="0" width="83.83" height="83.83" fill="#fad089"/><rect x="0" y="83.83" width="83.83" height="83.83" fill="#e4eefe"/><path d="M 0 167.66 A 83.83 83.83 0 0 1  83.83 83.83 L 83.83 167.66" fill="#b1cdfb"/><rect x="83.83333333333333" y="83.83333333333333" width="83.83333333333333" height="83.83333333333333" fill="#ffffff"/><rect x="83.83" y="83.83" width="41.92" height="41.92" fill="#fffaf4"/><polygon points="125.75,83.83 125.75,125.75 83.83,125.75" fill="#f59f0e"/><rect x="125.75" y="83.83" width="41.92" height="41.92" fill="#4c8df7"/><polygon points="125.75,83.83 167.67000000000002,125.75 125.75,125.75" fill="#d5e4fd"/><rect x="83.83" y="125.75" width="41.92" height="41.92" fill="#d6e5fd"/><polygon points="83.83,125.75 125.75,125.75 125.75,167.67000000000002" fill="#f6a720"/><rect x="125.75" y="125.75" width="41.92" height="41.92" fill="#bdd5fc"/><polygon points="125.75,125.75 167.67000000000002,125.75 125.75,167.67000000000002" fill="#5e98f8"/><rect x="167.66666666666666" y="83.83333333333333" width="83.83333333333333" height="83.83333333333333" fill="#ffffff"/><rect x="167.67" y="83.83" width="41.92" height="41.92" fill="#bed6fc"/><polygon points="209.58999999999997,83.83 209.58999999999997,125.75 167.67,125.75" fill="#facd82"/><rect x="209.58" y="83.83" width="41.92" height="41.92" fill="#f6ab2b"/><polygon points="209.58,83.83 251.5,83.83 209.58,125.75" fill="#dae8fd"/><rect x="167.67" y="125.75" width="41.92" height="41.92" fill="#e5effe"/><polygon points="167.67,125.75 209.58999999999997,125.75 209.58999999999997,167.67000000000002" fill="#f8b74a"/><rect x="209.58" y="125.75" width="41.92" height="41.92" fill="#fbd79a"/><polygon points="209.58,125.75 251.5,167.67000000000002 209.58,167.67000000000002" fill="#cddffd"/><rect x="251.5" y="83.83" width="83.83" height="83.83" fill="#fffffe"/><rect x="251.5" y="83.83" width="83.83" height="83.83" fill="#fef9f0"/><rect x="335.33" y="83.83" width="83.83" height="83.83" fill="#c9ddfd"/><path d="M 335.33 83.83 A 83.83 83.83 0 0 1  419.15999999999997 167.66 L 335.33 83.83 A 83.83 83.83 0 0 0 419.15999999999997 167.66" fill="#f7b13b"/><rect x="419.17" y="83.83" width="83.83" height="83.83" fill="#f4f8fe"/><path d="M 419.17 83.83 A 83.83 83.83 0 0 0 503 167.66 L 503 83.83" fill="#fce3b7"/><rect x="503" y="83.83" width="83.83" height="83.83" fill="#e7f0fe"/><rect x="503" y="83.83" width="83.83" height="83.83" fill="#659df8"/><rect x="586.8333333333333" y="83.83333333333333" width="83.83333333333333" height="83.83333333333333" fill="#ffffff"/><rect x="586.83" y="83.83" width="41.92" height="41.92" fill="#f9c367"/><circle cx="607.7900000000001" cy="104.78999999999999" r="20.96" fill="#f9c469"/><rect x="628.75" y="83.83" width="41.92" height="41.92" fill="#a4c5fb"/><rect x="628.75" y="83.83" width="41.92" height="41.92" fill="#5b97f7"/><rect x="586.83" y="125.75" width="41.92" height="41.92" fill="#fffcf7"/><circle cx="607.7900000000001" cy="146.71" r="20.96" fill="#fde9c7"/><rect x="628.75" y="125.75" width="41.92" height="41.92" fill="#f8bc55"/><rect x="628.75" y="125.75" width="41.92" height="41.92" fill="#7cacf9"/><rect x="670.67" y="83.83" width="83.83" height="83.83" fill="#89b4fa"/><polygon points="670.67,83.83 754.5,83.83 754.5,167.66" fill="#fcdfae"/><rect x="0" y="167.67" width="83.83" height="83.83" fill="#f9c267"/><path d="M 0 251.5 A 83.83 83.83 0 0 1  83.83 167.67 L 83.83 251.5" fill="#f6a51c"/><rect x="83.83" y="167.67" width="83.83" height="83.83" fill="#faca79"/><path d="M 83.83 251.5 A 83.83 83.83 0 0 0 167.66 167.67 L 83.83 167.67" fill="#f8bd5a"/><rect x="167.67" y="167.67" width="83.83" height="83.83" fill="#71a5f8"/><path d="M 167.67 167.67 A 83.83 83.83 0 0 0 251.5 251.5 L 251.5 167.67" fill="#80aef9"/><rect x="251.5" y="167.67" width="83.83" height="83.83" fill="#fce6c0"/><rect x="251.5" y="167.67" width="83.83" height="83.83" fill="#d3e3fd"/><rect x="335.33" y="167.67" width="83.83" height="83.83" fill="#b2cefb"/><polygon points="335.33,167.67 419.15999999999997,167.67 419.15999999999997,251.5" fill="#facb7c"/><rect x="419.16666666666663" y="167.66666666666666" width="83.83333333333333" height="83.83333333333333" fill="#ffffff"/><rect x="419.17" y="167.67" width="41.92" height="41.92" fill="#f8bc57"/><path d="M 419.17 167.67 A 41.92 41.92 0 0 0 461.09000000000003 209.58999999999997 L 461.09000000000003 167.67" fill="#d2e2fd"/><rect x="461.08" y="167.67" width="41.92" height="41.92" fill="#f9c060"/><path d="M 461.08 209.58999999999997 A 41.92 41.92 0 0 0 503 167.67 L 461.08 167.67" fill="#f6a51c"/><rect x="419.17" y="209.58" width="41.92" height="41.92" fill="#dce9fd"/><path d="M 419.17 251.5 A 41.92 41.92 0 0 1  461.09000000000003 209.58 L 461.09000000000003 251.5" fill="#bcd4fc"/><rect x="461.08" y="209.58" width="41.92" height="41.92" fill="#caddfd"/><path d="M 461.08 209.58 A 41.92 41.92 0 0 1 503 251.5 L 461.08 251.5" fill="#f8b84d"/><rect x="503" y="167.67" width="83.83" height="83.83" fill="#98bdfa"/><rect x="503" y="167.67" width="83.83" height="83.83" fill="#f8bf5e"/><rect x="586.83" y="167.67" width="83.83" height="83.83" fill="#e4eefe"/><rect x="586.83" y="167.67" width="83.83" height="83.83" fill="#82aff9"/><rect x="670.67" y="167.67" width="83.83" height="83.83" fill="#659df8"/><path d="M 670.67 251.5 A 83.83 83.83 0 0 0 754.5 167.67 L 670.67 167.67" fill="#fce6c1"/><rect x="0" y="251.5" width="83.83" height="83.83" fill="#fbd594"/><polygon points="83.83,251.5 83.83,335.33 0,335.33" fill="#fbdaa1"/><rect x="83.83333333333333" y="251.5" width="83.83333333333333" height="83.83333333333333" fill="#ffffff"/><rect x="83.83" y="251.5" width="41.92" height="41.92" fill="#72a5f9"/><path d="M 83.83 251.5 A 41.92 41.92 0 0 0 125.75 293.42 L 125.75 251.5" fill="#f9c46b"/><rect x="125.75" y="251.5" width="41.92" height="41.92" fill="#fbd493"/><path d="M 125.75 293.42 A 41.92 41.92 0 0 0 167.67000000000002 251.5 L 125.75 251.5" fill="#bcd4fc"/><rect x="83.83" y="293.42" width="41.92" height="41.92" fill="#fbfcff"/><path d="M 83.83 335.34000000000003 A 41.92 41.92 0 0 1  125.75 293.42 L 125.75 335.34000000000003" fill="#3d83f6"/><rect x="125.75" y="293.42" width="41.92" height="41.92" fill="#fbd699"/><path d="M 125.75 293.42 A 41.92 41.92 0 0 1 167.67000000000002 335.34000000000003 L 125.75 335.34000000000003" fill="#6aa0f8"/><rect x="167.67" y="251.5" width="83.83" height="83.83" fill="#f8be5d"/><polygon points="251.5,251.5 251.5,335.33 167.67,335.33" fill="#72a5f9"/><rect x="251.5" y="251.5" width="83.83333333333333" height="83.83333333333333" fill="#ffffff"/><rect x="251.5" y="251.5" width="41.92" height="41.92" fill="#f9c061"/><circle cx="272.46" cy="272.46" r="20.96" fill="#f6ac2e"/><rect x="293.42" y="251.5" width="41.92" height="41.92" fill="#fde9c8"/><rect x="293.42" y="251.5" width="41.92" height="41.92" fill="#f8b84c"/><rect x="251.5" y="293.42" width="41.92" height="41.92" fill="#f8bc57"/><circle cx="272.46" cy="314.38" r="20.96" fill="#f3f8fe"/><rect x="293.42" y="293.42" width="41.92" height="41.92" fill="#f5a010"/><rect x="293.42" y="293.42" width="41.92" height="41.92" fill="#92bafa"/><rect x="335.3333333333333" y="251.5" width="83.83333333333333" height="83.83333333333333" fill="#ffffff"/><rect x="335.33" y="251.5" width="41.92" height="41.92" fill="#5693f7"/><path d="M 335.33 293.42 A 41.92 41.92 0 0 1 377.25 251.5 L 377.25 261.98 A 31.44 31.44 0 0 0 345.81 293.42" fill="#fdeaca"/><rect x="377.25" y="251.5" width="41.92" height="41.92" fill="#fce3b8"/><path d="M 377.25 251.5 A 41.92 41.92 0 0 1 419.17 293.42 L 408.69 293.42 A 31.44 31.44 0 0 0 377.25 261.98" fill="#f8ba51"/><rect x="335.33" y="293.42" width="41.92" height="41.92" fill="#5794f7"/><path d="M 335.33 293.42 A 41.92 41.92 0 0 0 377.25 335.34000000000003 L 377.25 324.86 A 31.44 31.44 0 0 1 345.81 293.42" fill="#facc80"/><rect x="377.25" y="293.42" width="41.92" height="41.92" fill="#9bbffa"/><path d="M 377.25 335.34000000000003 A 41.92 41.92 0 0 0 419.17 293.42 L 408.69 293.42 A 31.44 31.44 0 0 1 377.25 324.86" fill="#fdeacb"/><rect x="419.17" y="251.5" width="83.83" height="83.83" fill="#478af7"/><rect x="419.17" y="251.5" width="83.83" height="83.83" fill="#f9c369"/><rect x="503" y="251.5" width="83.83" height="83.83" fill="#9abffa"/><polygon points="503,251.5 586.83,251.5 586.83,335.33" fill="#fdefd8"/><rect x="586.83" y="251.5" width="83.83" height="83.83" fill="#f8b950"/><path d="M 586.83 251.5 A 83.83 83.83 0 0 1 670.6600000000001 335.33 L 586.83 335.33" fill="#eff5fe"/><rect x="670.67" y="251.5" width="83.83" height="83.83" fill="#fef7ea"/><rect x="670.67" y="251.5" width="83.83" height="83.83" fill="#f8bc57"/><rect x="0" y="335.33" width="83.83" height="83.83" fill="#8eb7fa"/><polygon points="0,335.33 83.83,335.33 83.83,419.15999999999997" fill="#4588f6"/><rect x="83.83" y="335.33" width="83.83" height="83.83" fill="#faca79"/><path d="M 83.83 335.33 A 83.83 83.83 0 0 1 167.66 419.15999999999997 L 83.83 419.15999999999997" fill="#fbdba4"/><rect x="167.67" y="335.33" width="83.83" height="83.83" fill="#f5a216"/><path d="M 167.67 419.15999999999997 A 83.83 83.83 0 0 1  251.5 335.33 L 167.67 419.15999999999997 A 83.83 83.83 0 0 0 251.5 335.33" fill="#fef1db"/><rect x="251.5" y="335.3333333333333" width="83.83333333333333" height="83.83333333333333" fill="#ffffff"/><rect x="251.5" y="335.33" width="41.92" height="41.92" fill="#afccfb"/><polygon points="293.42,335.33 293.42,377.25 251.5,377.25" fill="#dbe8fd"/><rect x="293.42" y="335.33" width="41.92" height="41.92" fill="#f6a927"/><polygon points="293.42,335.33 335.34000000000003,335.33 293.42,377.25" fill="#fce3b9"/><rect x="251.5" y="377.25" width="41.92" height="41.92" fill="#b1cdfb"/><polygon points="251.5,377.25 293.42,377.25 293.42,419.17" fill="#4c8df7"/><rect x="293.42" y="377.25" width="41.92" height="41.92" fill="#fcdfaf"/><polygon points="293.42,377.25 335.34000000000003,419.17 293.42,419.17" fill="#e2ecfe"/><rect x="335.3333333333333" y="335.3333333333333" width="83.83333333333333" height="83.83333333333333" fill="#ffffff"/><rect x="335.33" y="335.33" width="41.92" height="41.92" fill="#f6ab2b"/><path d="M 335.33 377.25 A 41.92 41.92 0 0 0 377.25 335.33 L 335.33 335.33" fill="#b1cdfb"/><rect x="377.25" y="335.33" width="41.92" height="41.92" fill="#5895f7"/><path d="M 377.25 335.33 A 41.92 41.92 0 0 0 419.17 377.25 L 419.17 335.33" fill="#6aa0f8"/><rect x="335.33" y="377.25" width="41.92" height="41.92" fill="#fce4bc"/><path d="M 335.33 377.25 A 41.92 41.92 0 0 1 377.25 419.17 L 335.33 419.17" fill="#f7af35"/><rect x="377.25" y="377.25" width="41.92" height="41.92" fill="#fffbf4"/><path d="M 377.25 419.17 A 41.92 41.92 0 0 1  419.17 377.25 L 419.17 419.17" fill="#5190f7"/><rect x="419.17" y="335.33" width="83.83" height="83.83" fill="#f5a216"/><polygon points="419.17,335.33 503,335.33 419.17,419.15999999999997" fill="#fdeed5"/><rect x="503" y="335.3333333333333" width="83.83333333333333" height="83.83333333333333" fill="#ffffff"/><rect x="503" y="335.33" width="41.92" height="41.92" fill="#fbdda8"/><path d="M 503 377.25 A 41.92 41.92 0 0 0 544.92 335.33 L 503 335.33" fill="#f4f8fe"/><rect x="544.92" y="335.33" width="41.92" height="41.92" fill="#94bafa"/><path d="M 544.92 335.33 A 41.92 41.92 0 0 0 586.8399999999999 377.25 L 586.8399999999999 335.33" fill="#3d83f6"/><rect x="503" y="377.25" width="41.92" height="41.92" fill="#f9c163"/><path d="M 503 377.25 A 41.92 41.92 0 0 1 544.92 419.17 L 503 419.17" fill="#75a7f9"/><rect x="544.92" y="377.25" width="41.92" height="41.92" fill="#699ff8"/><path d="M 544.92 419.17 A 41.92 41.92 0 0 1  586.8399999999999 377.25 L 586.8399999999999 419.17" fill="#619bf8"/><rect x="586.83" y="335.33" width="83.83" height="83.83" fill="#fce7c2"/><path d="M 586.83 419.15999999999997 A 83.83 83.83 0 0 1  670.6600000000001 335.33 L 586.83 419.15999999999997 A 83.83 83.83 0 0 0 670.6600000000001 335.33" fill="#86b2f9"/><rect x="670.6666666666666" y="335.3333333333333" width="83.83333333333333" height="83.83333333333333" fill="#ffffff"/><rect x="670.67" y="335.33" width="41.92" height="41.92" fill="#f8bb53"/><polygon points="712.5899999999999,335.33 712.5899999999999,377.25 670.67,377.25" fill="#d8e6fd"/><rect x="712.58" y="335.33" width="41.92" height="41.92" fill="#f7ad30"/><polygon points="712.58,335.33 754.5,377.25 712.58,377.25" fill="#3d83f6"/><rect x="670.67" y="377.25" width="41.92" height="41.92" fill="#e4eefe"/><polygon points="670.67,377.25 712.5899999999999,377.25 712.5899999999999,419.17" fill="#f9c771"/><rect x="712.58" y="377.25" width="41.92" height="41.92" fill="#5d98f8"/><polygon points="712.58,377.25 754.5,377.25 712.58,419.17" fill="#5995f7"/><rect x="0" y="419.17" width="83.83" height="83.83" fill="#f9c876"/><path d="M 0 419.17 A 83.83 83.83 0 0 0 83.83 503 L 83.83 419.17" fill="#cddffd"/><rect x="83.83" y="419.17" width="83.83" height="83.83" fill="#f7b23c"/><polygon points="167.66,419.17 167.66,503 83.83,503" fill="#689ff8"/><rect x="167.66666666666666" y="419.16666666666663" width="83.83333333333333" height="83.83333333333333" fill="#ffffff"/><rect x="167.67" y="419.17" width="41.92" height="41.92" fill="#fad18c"/><path d="M 167.67 419.17 A 41.92 41.92 0 0 0 209.58999999999997 461.09000000000003 L 209.58999999999997 419.17" fill="#f6a824"/><rect x="209.58" y="419.17" width="41.92" height="41.92" fill="#f8b94f"/><path d="M 209.58 461.09000000000003 A 41.92 41.92 0 0 0 251.5 419.17 L 209.58 419.17" fill="#649cf8"/><rect x="167.67" y="461.08" width="41.92" height="41.92" fill="#fefaf2"/><path d="M 167.67 503 A 41.92 41.92 0 0 1  209.58999999999997 461.08 L 209.58999999999997 503" fill="#f7af37"/><rect x="209.58" y="461.08" width="41.92" height="41.92" fill="#c0d7fc"/><path d="M 209.58 461.08 A 41.92 41.92 0 0 1 251.5 503 L 209.58 503" fill="#fdecd0"/><rect x="251.5" y="419.17" width="83.83" height="83.83" fill="#f59e0c"/><path d="M 251.5 419.17 A 83.83 83.83 0 0 1 335.33 503 L 251.5 503" fill="#f6ac2d"/><rect x="335.3333333333333" y="419.16666666666663" width="83.83333333333333" height="83.83333333333333" fill="#ffffff"/><rect x="335.33" y="419.17" width="41.92" height="41.92" fill="#c6dbfc"/><polygon points="377.25,419.17 377.25,461.09000000000003 335.33,461.09000000000003" fill="#edf4fe"/><rect x="377.25" y="419.17" width="41.92" height="41.92" fill="#f7af37"/><polygon points="377.25,419.17 419.17,461.09000000000003 377.25,461.09000000000003" fill="#6da2f8"/><rect x="335.33" y="461.08" width="41.92" height="41.92" fill="#d8e6fd"/><polygon points="335.33,461.08 377.25,461.08 377.25,503" fill="#77a8f9"/><rect x="377.25" y="461.08" width="41.92" height="41.92" fill="#f9c876"/><polygon points="377.25,461.08 419.17,461.08 377.25,503" fill="#fde9c9"/><rect x="419.16666666666663" y="419.16666666666663" width="83.83333333333333" height="83.83333333333333" fill="#ffffff"/><rect x="419.17" y="419.17" width="41.92" height="41.92" fill="#fbd492"/><path d="M 419.17 419.17 A 41.92 41.92 0 0 0 461.09000000000003 461.09000000000003 L 461.09000000000003 419.17" fill="#facc7e"/><rect x="461.08" y="419.17" width="41.92" height="41.92" fill="#fce4ba"/><path d="M 461.08 461.09000000000003 A 41.92 41.92 0 0 0 503 419.17 L 461.08 419.17" fill="#f9c265"/><rect x="419.17" y="461.08" width="41.92" height="41.92" fill="#80aef9"/><path d="M 419.17 503 A 41.92 41.92 0 0 1  461.09000000000003 461.08 L 461.09000000000003 503" fill="#f7b647"/><rect x="461.08" y="461.08" width="41.92" height="41.92" fill="#facb7b"/><path d="M 461.08 461.08 A 41.92 41.92 0 0 1 503 503 L 461.08 503" fill="#f9c369"/><rect x="503" y="419.17" width="83.83" height="83.83" fill="#fffbf5"/><path d="M 503 419.17 A 83.83 83.83 0 0 1 586.83 503 L 503 503" fill="#e0ebfe"/><rect x="586.83" y="419.17" width="83.83" height="83.83" fill="#f9c978"/><rect x="586.83" y="419.17" width="83.83" height="83.83" fill="#83b0f9"/><rect x="670.6666666666666" y="419.16666666666663" width="83.83333333333333" height="83.83333333333333" fill="#ffffff"/><rect x="670.67" y="419.17" width="41.92" height="41.92" fill="#77a8f9"/><path d="M 670.67 461.09000000000003 A 41.92 41.92 0 0 1 712.5899999999999 419.17 L 712.5899999999999 429.65000000000003 A 31.44 31.44 0 0 0 681.15 461.09000000000003" fill="#94bbfa"/><rect x="712.58" y="419.17" width="41.92" height="41.92" fill="#4387f6"/><path d="M 712.58 419.17 A 41.92 41.92 0 0 1 754.5 461.09000000000003 L 744.0200000000001 461.09000000000003 A 31.44 31.44 0 0 0 712.58 429.65000000000003" fill="#fef9ef"/><rect x="670.67" y="461.08" width="41.92" height="41.92" fill="#4d8ef7"/><path d="M 670.67 461.08 A 41.92 41.92 0 0 0 712.5899999999999 503 L 712.5899999999999 492.52 A 31.44 31.44 0 0 1 681.15 461.08" fill="#f9c66f"/><rect x="712.58" y="461.08" width="41.92" height="41.92" fill="#f9c978"/><path d="M 712.58 503 A 41.92 41.92 0 0 0 754.5 461.08 L 744.0200000000001 461.08 A 31.44 31.44 0 0 1 712.58 492.52" fill="#498bf7"/></g></svg>